<svg id="Layer_1" data-name="Layer 1" xmlns="http://www.w3.org/2000/svg" viewBox="0 0 1921 436.04999"><defs><style>.cls-1{fill:#d6932f;}.cls-2{fill:none;stroke:#877432;}</style></defs><path class="cls-1" d="M1575.43994,222.95l-94.01,227.6H500.83L675.14,208.46a14.99293,14.99293,0,0,1,12.17-6.24h874.26007A15.00157,15.00157,0,0,1,1575.43994,222.95Z" transform="translate(0.5 -15)"/><path class="cls-2" d="M1575.9,223.14,1481.96,450.55H500.21L674.73,208.16a15.51761,15.51761,0,0,1,12.58-6.44h874.26007A15.50045,15.50045,0,0,1,1575.9,223.14Z" transform="translate(0.5 -15)"/><path class="cls-1" d="M760.82,146.53,725.66,201.72l-.31994.5L567.15,450.55H0V123.01l748.18.46A15.002,15.002,0,0,1,760.82,146.53Z" transform="translate(0.5 -15)"/><path class="cls-2" d="M761.24,146.8l-34.99,54.92-.31.5L567.74,450.55H0V122.51l748.18.46A15.50179,15.50179,0,0,1,761.24,146.8Z" transform="translate(0.5 -15)"/><path class="cls-1" d="M1920,16V450.55H1464.64L1391.7,202.22l-.1499-.5-48.9-166.49A15.00118,15.00118,0,0,1,1357.04,16Z" transform="translate(0.5 -15)"/><path class="cls-2" d="M1920,15.5V450.55H1464.12l-72.94007-248.33-.1499-.5L1342.16992,35.37A15.49523,15.49523,0,0,1,1357.04,15.5Z" transform="translate(0.5 -15)"/></svg>