<svg id="Layer_1" data-name="Layer 1" xmlns="http://www.w3.org/2000/svg" viewBox="0 0 1920 5486"><defs><style>.cls-1,.cls-2{fill:#d6932f;}.cls-2{stroke:#877432;stroke-width:2px;}.cls-3{fill:#ffb341;}</style></defs><path class="cls-1" d="M1329.5,4594.55H563l10,709.14h733.5Z"/><path class="cls-2" d="M1305.53,5302.69l22.94-707.14H564l10,707.14Z"/><path class="cls-1" d="M461,3475.5-187.5,3461-363,3934.94l710.5,13.37Z"/><path class="cls-2" d="M346.71,3947.3l113-470.83L-186.81,3462-361.57,3934Z"/><path class="cls-1" d="M2376,3145.29l-631.42-61.11L1624,3909.75l711,31.14Z"/><path class="cls-2" d="M2334,3939.84,2375,3146.2l-629.52-60.93L1625.15,3908.8Z"/><path class="cls-1" d="M343,2742.49l-576-19.81-169,361.5H302Z"/><path class="cls-2" d="M301.11,3083.18l40.77-339.73-574.25-19.75-168.06,359.48Z"/><path class="cls-1" d="M536.5,2168.05l-575,48L-149,2493.9H578Z"/><path class="cls-2" d="M576.86,2492.9l-41.23-323.77L-37.8,2217-147.53,2492.9Z"/><path class="cls-1" d="M2577,2213.12l-1063-81.71v374.37h783.55Z"/><path class="cls-2" d="M2297.12,2504.78,2574.82,2214,1515,2132.49v372.29Z"/><path class="cls-1" d="M1097,2179l-575,48L411.5,2504.79h727Z"/><path class="cls-2" d="M1137.36,2503.79,1096.13,2180,522.7,2227.93,413,2503.79Z"/><path class="cls-1" d="M761,2770.22l-576-19.81L-73,3177.5l793-65.59Z"/><path class="cls-2" d="M719.1,3111l40.78-339.8-574.33-19.75L-71.13,3176.34Z"/><path class="cls-1" d="M1323,2781.12l-638.5-27.24L607.5,3161l715.5-18.5Z"/><path class="cls-2" d="M1322,3141.53V2782.07l-636.68-27.15-76.61,405Z"/><path class="cls-1" d="M774,3498l-633-16.5L-14,3951.78l710.5,13.37Z"/><path class="cls-2" d="M695.66,3964.13,772.83,3499l-631.11-16.45L-12.63,3950.81Z"/><path class="cls-1" d="M1410.5,3455.1l-706,7.9-56,489.77,692,79.23Z"/><path class="cls-2" d="M1339.63,4030.9l69.74-574.79-704,7.88-55.78,487.9Z"/><path class="cls-1" d="M1401,3909.69l-673.5,36.15-63,723,846.5-52.5Z"/><path class="cls-2" d="M1509.84,4615.41l-109.69-704.68-671.73,36.06-62.82,721Z"/><path class="cls-1" d="M854.5,4327.5l-751.5-28L43,5148.19l789.5-8.41Z"/><path class="cls-2" d="M831.53,5138.79l21.94-810.33-749.54-27.92L44.07,5147.18Z"/><path class="cls-1" d="M1787.5,4594.06H1021l10,709.13h733.5Z"/><path class="cls-2" d="M1763.53,5302.19l22.94-707.13H1022l10,707.13Z"/><path class="cls-1" d="M1948.5,4186.51l-765.5,53,50.5,703.19,692-47Z"/><path class="cls-2" d="M1924.53,4894.7l22.93-707.12-763.39,52.84,50.36,701.2Z"/><path class="cls-1" d="M702.5,4719.35l-765.5,53,50.5,703.19,692-47Z"/><path class="cls-2" d="M678.53,5427.54l22.94-707.12-763.4,52.84,50.36,701.2Z"/><path class="cls-1" d="M253.1,3794.8l-617.1-153,12.1,860.67,473-186.2Z"/><path class="cls-2" d="M120.26,4315.51l131.62-520L-363,3643.06-350.92,4501Z"/><path class="cls-1" d="M1778,3499.5H1263.5l81,764.26,709,12.87Z"/><path class="cls-2" d="M2052.08,4275.61,1777.29,3500.5H1264.61l80.79,762.28Z"/><path class="cls-1" d="M819,2865l-590.5,49.33L87,3276.32H775.5Z"/><path class="cls-2" d="M774.6,3275.32l43.28-409.22L229.2,2915.27,88.46,3275.32Z"/><path class="cls-1" d="M1964.5,2781.61l-702,30.21,52,285.73,622,90.45Z"/><path class="cls-2" d="M1315.36,3096.67l620.22,90.19,27.85-404.2-699.74,30.11Z"/><path class="cls-1" d="M1604,2145.77l-512,36.64L1126,2439l644.5-19.88Z"/><path class="cls-2" d="M1768.75,2418.18l-165.29-271.37-510.33,36.53L1126.87,2438Z"/><path class="cls-1" d="M2000,2592.94H1443.5L1341,2891.55l653.5,65.36Z"/><path class="cls-2" d="M1444.21,2593.94l-101.85,296.74,651.16,65.13,5.46-361.87Z"/><path class="cls-1" d="M1230,2266.1l-570.5,25.75L746,1957.59l409.5-23.27Z"/><path class="cls-2" d="M1154.71,1935.36l74,329.8-567.95,25.63,86-332.24Z"/><path class="cls-1" d="M1370,1575l-1054-7.13v374.37h783.55Z"/><path class="cls-2" d="M1099,1941.24,1368,1576l-1051-7.12v372.37Z"/><path class="cls-1" d="M643.5,1609,281,1607-74,1830.82l484,47.54Z"/><path class="cls-2" d="M409.58,1877.31,641.32,1610l-360-2L-71,1830.11Z"/><path class="cls-1" d="M1369.7,1649H924l-14.5,256.59,539.5-14.85Z"/><path class="cls-2" d="M1447.63,1889.78,1369,1650H925l-14.39,254.57Z"/><path class="cls-1" d="M1219.5,1603l355.5,2.47,620.5,300.59h-759Z"/><path class="cls-2" d="M1437,1905.09l-215.55-301,353.31,2.46,616.37,298.59Z"/><rect class="cls-1" x="522" y="359.57" width="1175" height="1006.26" rx="15"/><rect class="cls-2" x="523" y="360.57" width="1173" height="1004.26" rx="14"/><rect class="cls-1" x="-382" y="5" width="1176" height="1178.59" rx="15"/><rect class="cls-2" x="-381" y="6" width="1174" height="1176.59" rx="14"/><rect class="cls-1" x="1326" y="204" width="1176" height="1296" rx="15"/><rect class="cls-2" x="1327" y="205" width="1174" height="1294" rx="14"/><rect class="cls-3" x="1366" y="244" width="1104" height="376" rx="15"/><path class="cls-1" d="M216,1876.38l442,30.7,80.5-174.81L404,1706.52Z"/><path class="cls-2" d="M404.35,1707.55l-185.94,168,439,30.49L737,1733.16Z"/><path class="cls-1" d="M-326.83,1169.1a15,15,0,0,1,16-14.66L274,1194a15,15,0,0,1,14,15v287.06l-605.87,113a15,15,0,0,1-17.75-15Z"/><path class="cls-2" d="M-310.88,1155.44,274,1195A14,14,0,0,1,287,1209v286.23l-605,112.84a14,14,0,0,1-16.57-14l8.79-424.9A14,14,0,0,1-310.88,1155.44Z"/><path class="cls-1" d="M2182.59,1168.68a15,15,0,0,0-16-14.65L1566,1193.67a15,15,0,0,0-14,15v287l621.93,113.07a15,15,0,0,0,17.68-15.07Z"/><path class="cls-2" d="M2166.67,1155l-600.59,39.64a14,14,0,0,0-13.08,14v286.18l621.11,112.92a14,14,0,0,0,16.5-14.07l-9-425A14,14,0,0,0,2166.67,1155Z"/><path class="cls-1" d="M1952.64,1527.75,1542,1433.17,1567.5,1608l385.14,206.48Z"/><path class="cls-2" d="M1951.64,1812.81V1528.55l-408.44-94.08,25.22,172.89Z"/><path class="cls-1" d="M1744,1579.25l350.5,149.56-8-372.4-308-33.18Z"/><path class="cls-2" d="M1779.36,1324.33l-34.27,254.3,348.38,148.65-7.95-370Z"/><path class="cls-1" d="M1556,1096.55l440,160.33-10-399.22-386.65-35.57Z"/><path class="cls-2" d="M1600.15,823.17l-43,272.72L1995,1255.43l-10-396.86Z"/><path class="cls-1" d="M292.5,1268.76-7,1282.63-35,850.31,280.5,972.63Z"/><path class="cls-2" d="M279.53,973.32l11.93,294.49L-6.07,1281.58-33.9,851.81Z"/></svg>